<?xml version="1.0" encoding="UTF-8"?>
<svg xmlns="http://www.w3.org/2000/svg" width="100" height="100" viewBox="0 0 100 100">
  <defs>
    <linearGradient id="cool" x1="0" y1="0" x2="1" y2="1">
      <stop offset="0" stop-color="#ffffff"/>
      <stop offset="1" stop-color="#dfe4ee"/>
    </linearGradient>
    <linearGradient id="warm" x1="0" y1="0" x2="1" y2="1">
      <stop offset="0" stop-color="#ff9a6b"/>
      <stop offset="1" stop-color="#f2603f"/>
    </linearGradient>
  </defs>
  <!-- pins -->
  <g fill="#aeb8d0">
    <rect x="32" y="10" width="8" height="18" rx="3"/>
    <rect x="46" y="10" width="8" height="18" rx="3"/>
    <rect x="60" y="10" width="8" height="18" rx="3"/>
    <rect x="32" y="72" width="8" height="18" rx="3"/>
    <rect x="46" y="72" width="8" height="18" rx="3"/>
    <rect x="60" y="72" width="8" height="18" rx="3"/>
    <rect x="10" y="32" width="18" height="8" rx="3"/>
    <rect x="10" y="46" width="18" height="8" rx="3"/>
    <rect x="10" y="60" width="18" height="8" rx="3"/>
    <rect x="72" y="32" width="18" height="8" rx="3"/>
    <rect x="72" y="46" width="18" height="8" rx="3"/>
    <rect x="72" y="60" width="18" height="8" rx="3"/>
  </g>
  <!-- chip body + warm core -->
  <rect x="24" y="24" width="52" height="52" rx="12" fill="url(#cool)"/>
  <rect x="37" y="37" width="26" height="26" rx="7" fill="url(#warm)"/>
</svg>
